<svg width="512" height="512" viewBox="0 0 512 512" fill="none" xmlns="http://www.w3.org/2000/svg">
  <!-- Background circle with YumTrack theme color -->
  <circle cx="256" cy="256" r="256" fill="#4F46E5"/>
  
  <!-- Food/nutrition themed icon -->
  <g transform="translate(128, 128)">
    <!-- Bowl/plate base -->
    <ellipse cx="128" cy="192" rx="96" ry="32" fill="#FEF3C7" stroke="#F59E0B" stroke-width="4"/>
    
    <!-- Food items -->
    <circle cx="96" cy="128" r="20" fill="#EF4444"/> <!-- Red food item -->
    <circle cx="160" cy="118" r="16" fill="#10B981"/> <!-- Green food item -->
    <circle cx="128" cy="160" r="18" fill="#F97316"/> <!-- Orange food item -->
    <circle cx="144" cy="134" r="14" fill="#8B5CF6"/> <!-- Purple food item -->
    <circle cx="108" cy="148" r="12" fill="#EC4899"/> <!-- Pink food item -->
    <circle cx="152" cy="152" r="10" fill="#06B6D4"/> <!-- Cyan food item -->
    
    <!-- Nutrition tracking elements - small dots around the bowl -->
    <circle cx="64" cy="96" r="6" fill="#FBBF24" opacity="0.8"/>
    <circle cx="192" cy="86" r="6" fill="#FBBF24" opacity="0.8"/>
    <circle cx="54" cy="160" r="6" fill="#FBBF24" opacity="0.8"/>
    <circle cx="202" cy="150" r="6" fill="#FBBF24" opacity="0.8"/>
    <circle cx="72" cy="220" r="6" fill="#FBBF24" opacity="0.8"/>
    <circle cx="184" cy="210" r="6" fill="#FBBF24" opacity="0.8"/>
    
    <!-- AI tracking symbol - larger spark -->
    <path d="M86 54 L96 76 L118 64 L108 86 L130 74 L108 96 L86 86 L96 64 Z" fill="#FFFFFF" opacity="0.9"/>
    <path d="M170 44 L178 62 L196 54 L188 72 L206 64 L188 82 L170 74 L178 56 Z" fill="#FFFFFF" opacity="0.7"/>
  </g>
  
  <!-- App name text -->
  <text x="256" y="450" text-anchor="middle" fill="white" font-family="system-ui, -apple-system, sans-serif" font-size="32" font-weight="600">YumTrack</text>
</svg>